<?xml version="1.0" encoding="utf-8"?>
<!-- Generator: Adobe Illustrator 27.0.0, SVG Export Plug-In . SVG Version: 6.00 Build 0)  -->
<svg version="1.1" id="Layer_1" xmlns="http://www.w3.org/2000/svg" xmlns:xlink="http://www.w3.org/1999/xlink" x="0px" y="0px"
	 viewBox="0 0 1920 788.2" style="enable-background:new 0 0 1920 788.2;" xml:space="preserve">
<style type="text/css">
	.st0{fill:#006666;}
	.st1{fill:#193C36;}
	.st2{fill:#FFFFFF;}
</style>
<rect class="st0" width="1920" height="788.2"/>
<g>
	<g>
		<path class="st1" d="M191.2,326.6c-43.5,0-82.2,67.4-83.6,105.2c-1,25.3,14.8,55.9,43,55.9c6.7,0,13.4-1,19.1-3.8l18.6-87.5
			c2.9-11,11-20.1,22.9-20.1c11,0,17.7,8.6,17.2,19.6c-1,23.9-13.9,76.5-18.6,102.3c-3.3,18.6-44.9,27.7-60.2,27.7
			c-51.6,0-82.2-47.8-80.8-95.6c2.4-59.3,58.8-142,123.8-142c15.8,0,52.6,7.2,51.6,28.2c-0.5,10.5-9.6,19.6-20.1,19.6
			S211.3,326.6,191.2,326.6L191.2,326.6z"/>
		<path class="st1" d="M402.9,507.8c-0.5,10.5-11,18.2-21,18.2c-8.1,0-14.3-4.8-17.2-11.9L333.6,439h-22.5l-16.2,71.2
			c-1.9,9.6-9.1,15.8-19.1,15.8s-19.6-7.7-19.1-18.2l0.5-4.3l44.9-203.6c2.4-11.5,10.5-9.1,20.1-9.1h60.2c33.5,0,53,31.5,52.1,63.1
			c-1.4,33.5-26.8,71.7-59.7,82.2C379.5,447.6,402.9,498.7,402.9,507.8L402.9,507.8z M335,329l-15.3,71.7h41.1
			c17.2,0,34.4-33,34.9-47.3c0-8.6-4.3-24.4-14.8-24.4H335z"/>
		<path class="st1" d="M452.1,428.9c2.4-62.1,53.5-140.1,121.8-140.1c53.5,0,78.4,47.8,76.5,96.1c-1.9,62.1-53,140.1-120.9,140.1
			C475.5,525,450.2,477.2,452.1,428.9L452.1,428.9z M490.8,430.8c-1,24.4,10.5,55.9,39.7,55.9c46.8,0,80.8-63.1,81.7-103.7
			c1-24.4-10.5-55.9-39.7-55.9C525.7,327.1,492.2,390.7,490.8,430.8L490.8,430.8z"/>
		<path class="st1" d="M675.7,463.3c0.5-8.6,1.4-17.2,3.3-25.3l30.1-134.3c2.4-9.6,10-15.3,19.6-15.3c10.5,0,19.6,7.2,19.1,18.2
			l-0.5,3.8l-27.2,120c-2.4,10-4.3,20.1-4.8,30.1c-0.5,17.7,3.3,25.8,22,25.8c33.9,0,49.7-8.6,58.8-43
			c12.4-45.9,19.6-93.7,33.5-139.6c2.4-9.6,8.6-15.3,19.1-15.3s19.1,7.2,18.6,18.2l-0.5,3.8c-5.7,46.4-21,94.2-32.5,139.6
			c-12.4,49.7-41.1,74.6-92.7,74.6C701,524.5,674.3,506.8,675.7,463.3L675.7,463.3z"/>
		<path class="st1" d="M1005.9,504.4c-18.2-43-33.5-88-50.2-131.9l-29.6,134.8c-1.9,9.6-9.1,15.3-19.1,15.3s-19.6-7.2-19.1-18.2
			l0.5-4.3L930.9,307c2.4-10.5,13.4-16.2,22.5-16.2c7.2,0,15.3,6.7,18.2,12.4c5.3,10.5,9.1,24.4,12.9,36.3
			c12.4,33.9,24.4,68.8,35.4,103.7l30.1-136.2c2.4-9.6,9.6-16.2,19.1-16.2c11,0,20.1,7.6,19.6,18.6l-0.5,4.3l-43.5,195.5
			c-1,6.7-9.6,16.3-16.7,16.3C1015.5,525.5,1010.2,514.5,1005.9,504.4L1005.9,504.4z"/>
		<path class="st1" d="M1112,522.6c-7.7,0-13.9-1.9-13.4-10c0.5-7.7,45.9-201.7,49.7-210.8c2.9-8.6,8.6-11,17.2-11h52.6
			c53.5,0,76.4,41.6,75,90.8c-2.4,64.1-47.3,141-119,141L1112,522.6L1112,522.6z M1146.4,484.4h29.2c47.8,0,77.9-62.6,79.3-103.3
			c1-26.3-8.6-52.1-38.2-52.1h-36.3L1146.4,484.4L1146.4,484.4z"/>
		<path class="st1" d="M1370,392.6h67.4c11.5,0,19.6,7.6,19.1,19.1c-0.5,11-9.1,19.1-20.6,19.1h-74.5l-11.5,53.5h83.6
			c11,0,18.6,7.7,18.6,19.1c0,11.5-9.1,19.1-20.1,19.1h-107c-9.1,0-20.6-3.8-20.1-13.9l0.5-3.3c3.3-29.6,12.9-60.2,19.6-89.4
			c8.1-36.3,14.3-73.6,23.9-109c2.4-8.1,11.5-16.2,20.1-16.2h105.6c11,0,19.1,8.1,18.6,19.1c-0.5,11.5-8.6,19.1-20.1,19.1h-89.8
			L1370,392.6L1370,392.6z"/>
		<path class="st1" d="M1643.3,507.8c-0.5,10.5-11,18.2-21,18.2c-8.1,0-14.3-4.8-17.2-11.9L1574,439h-22.5l-16.2,71.2
			c-1.9,9.6-9.1,15.8-19.1,15.8s-19.6-7.7-19.1-18.2l0.5-4.3l44.9-203.6c2.4-11.5,10.5-9.1,20.1-9.1h60.2c33.4,0,53,31.5,52.1,63.1
			c-1.4,33.5-26.8,71.7-59.7,82.2C1619.9,447.6,1643.3,498.7,1643.3,507.8L1643.3,507.8z M1575.5,329l-15.3,71.7h41.1
			c17.2,0,34.4-33,34.9-47.3c0-8.6-4.3-24.4-14.8-24.4H1575.5L1575.5,329z"/>
		<path class="st1" d="M1795.7,323.7c-21,0-44,15.3-44.4,39.2c-1.4,33.5,88.9,12,86.5,78.4c-1.4,50.2-41.1,87.5-89.8,87.5
			c-18.6,0-62.1-13.4-61.2-37.8c0.5-10.5,10.5-19.6,20.6-19.6c14.3,0,16.7,18.2,42.1,18.2c20.6,0,48.7-20.1,49.2-43.5
			c1.4-33.5-89.8-15.8-87.4-80.8c1.9-47.3,40.6-81.3,86-81.3c22.5,0,61.2,15.8,60.2,43.5c-0.5,11-11,19.6-21.5,19.6
			C1815.4,347.2,1824.9,323.7,1795.7,323.7L1795.7,323.7z"/>
	</g>
	<g>
		<path class="st2" d="M1774,298.6c28.9,0,19.4,23.2,39.8,23.2c10.4,0,20.8-8.5,21.3-19.4c0.9-27.5-37.4-43.1-59.7-43.1
			c-45,0-83.3,33.6-85.2,80.5c-2.4,64.4,88.1,46.9,86.6,80c-0.5,23.2-12.3,39.6-32.6,39.7c0,0,0,0-0.1,0c-25.1,0-79.3-1.8-93.5-1.8
			h-35.2c-7.2-18.1-17.5-40.7-20.4-47.8c32.7-10.4,57.8-48.3,59.2-81.4c1-31.2-18.4-62.5-51.6-62.5h-59.7c-9.5,0-17.5-2.4-19.9,9
			l-40.3,182.8h-150.5l11.4-53h73.9c11.4,0,19.9-8,20.3-18.9c0.5-11.4-7.6-18.9-18.9-18.9h-66.8l13.3-63h89
			c11.4,0,19.4-7.6,19.9-18.9c0.5-10.9-7.6-18.9-18.4-18.9h-104.7c-8.5,0-17.5,8-19.9,16.1c-9.5,35-15.6,72-23.7,108
			c-5.1,22.1-11.8,45-16.2,67.7H1236c24.4-27.8,38.5-66.8,39.8-101.8c1.4-48.8-21.3-90-74.3-90h-52.1c-8.5,0-14.2,2.4-17.1,10.9
			c-2.9,7-30.9,125.5-43.4,180.9h-53.9l37.6-169l0.5-4.3c0.5-10.9-8.5-18.5-19.4-18.5c-9.5,0-16.6,6.6-18.9,16.1L1005,417
			c-10.9-34.5-22.7-69.1-35-102.7c-3.8-11.8-7.6-25.6-12.8-36c-2.8-5.7-10.9-12.3-18-12.3v-0.2H203.7c-6.4-0.3-12.4-0.2-17.9,0.3h0
			c-0.8,0-1.6,0-2.3,0C119.1,266,65,345.5,62.6,404.3c-1.4,47.4,28.9,94.7,80,94.7c15.1,0,56.3-9,59.7-27.5
			c4.7-25.6,17.5-77.6,18.4-101.3c0.5-10.9-6.1-19.4-17-19.4c-11.8,0-19.9,9-22.7,19.9l-18.5,86.7c-5.7,2.8-12.3,3.8-18.9,3.8
			c-27.9,0-43.6-30.3-42.6-55.4c1.3-35.6,36.1-97.7,76.6-103.7c2.1-0.3,4.2-0.5,6.3-0.5c19.9,0,59.8,0.5,70.7,0.5h33.2l-38.6,174.7
			l-0.5,4.3c-0.5,10.4,8.5,18,18.9,18s17-6.2,18.9-15.6l16.1-70.6H325l30.8,74.3c2.8,7.1,9,11.8,17,11.8c10,0,20.4-7.6,20.8-18
			c0-9-23.2-59.7-27.9-71c32.7-10.4,57.8-48.3,59.2-81.5c0.3-9.1-1.2-18.2-4.2-26.5h68.1c-27.9,25.5-45,64.3-46.4,100.9
			c-1.9,47.8,23.2,95.2,76.7,95.2c67.2,0,117.9-77.2,119.8-138.8c0.9-22.1-4.7-42.1-16.2-57.3H692l-24.7,109.9
			c-1.9,8-2.8,16.6-3.3,25.1c-1.4,43.1,25.1,60.6,65.3,60.6c51.2,0,79.5-24.6,91.9-73.9c10-39.6,22.9-81,29.7-121.7h61.5
			l-37.8,171.4l-0.5,4.3c-0.5,10.9,8.5,18,18.9,18s17-5.7,18.9-15.1L941.5,347c16.6,43.6,31.7,88.1,49.7,130.7c1.7,4,3.5,8.1,6,11.6
			c3.6,5.3,8.4,9.2,15.8,9.2l0,0c0,1.8,713.6,3.3,713.6,3.3c48.3,0,87.6-36.9,89-86.6c2.4-65.8-87.1-44.5-85.7-77.7
			C1730.4,313.8,1753.1,298.7,1774,298.6L1774,298.6z M352,374.9h-40.7l15.1-71h45.5c10.4,0,14.7,15.6,14.7,24.1
			C386,342.2,369,374.9,352,374.9L352,374.9z M601,357.4c-1,40.2-34.6,102.7-81,102.7c-28.9,0-40.3-31.2-39.3-55.4
			c1.4-39.8,34.6-102.8,81-102.8C590.6,301.9,602,333.2,601,357.4L601,357.4z M783.4,417c-9,34.1-24.6,42.6-58.3,42.6
			c-18.5,0-22.2-8-21.8-25.6c0.5-10,2.4-19.9,4.7-29.8L731.3,302h78.8C800.2,340.2,793.6,379.3,783.4,417L783.4,417z M1159.3,457.8
			h-28.9l33.6-153.9h36c29.4,0,38.8,25.6,37.9,51.6C1236.5,395.7,1206.7,457.8,1159.3,457.8z M1521.7,457.8l10.3-45h22.2l18.6,45
			H1521.7z M1540.5,374.9l15.1-71h45.5c10.4,0,14.7,15.6,14.7,24.1c-0.5,14.2-17.5,46.9-34.6,46.9H1540.5z"/>
		<path class="st2" d="M1707.9,501.8c8,0.1,14.7,0,18.7,0H1707.9z"/>
	</g>
</g>
</svg>
